<svg width="51" height="51" viewBox="0 0 51 51" fill="none" xmlns="http://www.w3.org/2000/svg">
<path d="M38.4492 39.8438C42.9316 35.6602 44.9238 28.6875 43.7285 22.0137H25.8984V29.3848H36.0586C35.6602 31.7754 34.2656 33.7676 32.2734 35.0625L38.4492 39.8438Z" fill="#4285F4"/>
<path d="M8.96484 33.9668C10.2752 36.5481 12.1544 38.7982 14.4609 40.5476C16.7673 42.2969 19.4408 43.4999 22.2798 44.0658C25.1187 44.6316 28.0491 44.5457 30.85 43.8143C33.651 43.083 36.2493 41.7253 38.4492 39.8438L32.2734 35.0625C26.9941 38.5488 18.2285 37.2539 15.2402 29.0859L8.96484 33.9668Z" fill="#34A853"/>
<path d="M15.2402 29.0859C14.4434 26.5957 14.4434 24.3047 15.2402 21.8145L8.96486 16.9336C6.67384 21.5156 5.97658 27.9902 8.96486 33.9668L15.2402 29.0859Z" fill="#FBBC02"/>
<path d="M15.2402 21.8144C17.4316 14.9414 26.7949 10.957 33.0703 16.834L38.5488 11.4551C30.7793 3.98437 15.6387 4.2832 8.96484 16.9336L15.2402 21.8144Z" fill="#EA4335"/>
</svg>
